<svg width="232" height="512" viewBox="0 0 232 512" fill="none" xmlns="http://www.w3.org/2000/svg">
<path d="M197.8 391.1L183.7 415.7L179.1 495.9C179.1 504.8 150.8 512 116 512C81.2 512 52.9001 504.8 52.9001 495.9L47.1 416.5L32.2001 391.1C73.4001 408.4 158.2 407.8 197.8 391.1ZM1.80005 137.8L15.4 263.3C21.3 243.3 36.2001 216.3 55.4001 208.1C61.7001 205.4 68.1 205.4 74.1 209C79.3 212 83.7 218.3 84.2 220.8C85.4 227.3 82.2 229.9 79.7 229.9C76.7 229.9 74.4 225.3 72.9 222.6C68.8 215.3 62.6 215 56 219.8C49.1 224.8 43.1001 233.2 38.9001 240.5C33.8001 249.3 29.5001 259 26.9001 268.7C25.4001 274.3 24 283.3 26.3 288.6C27.3 290.8 28.8001 292.2 31.2001 292.2C36.2001 292.2 43.5 285.6 47 282.1C51.5 277.6 57.3 270.6 59.5 266.1L64.7 250.6C67.3 243.8 74.6 245 74.6 250.6C74.6 260.8 70.9 264.2 64.6 285.3C58.8 304.8 57 311.1 57 311.1C56.3 313.9 53.6001 318.6 50.7001 318.6C49.5001 318.6 48.6 318.2 48.1 317.4C47.1 316 47.2 312.1 47.3 311.1C47.5 307.9 53.6 288.9 54.6 285.9C52.6 288.1 50.5001 290.3 48.2001 292.5C42.8001 297.6 34.1001 304.3 26.7001 304.3C23.3001 304.3 21.1 303.4 19 301.9L26.6 381.5C28.6 386.5 65.8 398.6 114.8 398.6C163.9 398.6 201.1 386.4 203 381.5L213.9 286.9C208.2 292.1 201.6 298.5 194.3 301.7C188.9 304 176.9 305.5 176.9 296C176.9 290.8 186 281.2 191.3 274.5C192.7 272.8 196 268.6 196 266.4C196 263.5 190 264.2 184.3 268.9C181.1 271.6 178.1 275.2 175.6 278.6C171.3 284.6 169 289.8 167.1 294.1C160.9 308.3 163 302.7 158 316.1C153 329.4 153.8 327.9 152.8 330.1C151.9 332 150.6 333.6 148.8 334.6C146.9 335.6 144.3 335.5 142.7 334.3C141.8 333.7 141.4 332.4 141.4 330.6C141.4 329.7 141.5 328.8 141.7 327.9C143.2 321.8 149.5 309.8 156.7 293.6C158.3 289.9 157.7 291 157.5 291.3C151.3 297.3 146.6 300.2 143.1 301.8C137.3 304.4 130.1 304.4 128.6 297.7C128.5 297.3 128.5 296.9 128.4 296.5C116.6 305.7 104.1 308.2 108.4 288.4C103.8 296.6 95.8 303.3 86 303.3C81.9 303.3 78.9 301.9 77.4 298.2C75.1 292.7 78.7 283.3 82 274.4C83.7 269.9 86 264.5 89.1 258.2C90.7 254.8 93.3 252.8 96.7 253.7C97.3 253.9 97.8 254.1 98.3 254.4C100.9 256.2 99.9 258.9 98.6 261.6C94.8 269.1 91.5 274.6 89.3 282.4C88.4 285.7 87.3 291.4 90.8 291.4C93.2 291.4 95.5 290.6 97.7 289C102.3 285.6 106 280.5 108.8 275.5C110.8 271.9 113.2 267.2 114.4 263.2C114.9 261.5 115.5 259.9 116.2 258.4C117.3 255.9 118.8 253.3 121.4 253.3C122.7 253.3 123.8 253.8 124.6 254.8C126.3 257 125.9 259.3 125 261.7C123 267.3 120.3 272.3 118.1 278.4C116.8 281.9 115.4 286.4 115.4 290.1C115.4 293.5 119.1 292.7 122.2 291.3C124.6 290.2 127 288.5 129 286.8C130.2 281.9 129.9 283 155.4 218.6C156.7 215.3 159.1 213.9 161.5 213.9C162.7 213.9 163.7 214.3 164.7 215C166.4 216.3 166.4 219.1 165.7 221.2C165 223.1 165.1 222.5 161.2 231.7C156 243.8 152.6 252.5 148 263.6C146.1 268.2 140.3 282.5 139.3 285.9C138.7 288.1 138 291.7 140.3 291.7C145.7 291.7 159.6 278.6 163.4 274.7C163.6 274.4 163.9 274.3 164.3 274.1C164.9 272.2 165.5 270.4 166 268.6C167.4 264.8 168.7 260.4 171.3 257.3C172.1 256.3 173 255.7 174 255.7C176.8 255.7 178.2 256.9 178.2 259.7C178.2 260.8 177.5 264.8 177.1 265.9C178.5 264.4 180 262.9 181.6 261.4C196.6 247.5 207.3 254.6 207.3 261.6C207.3 269 198.4 279.3 193.5 285C191.9 286.9 188.6 290.4 188.5 291.4C188.5 292.7 189.4 293.2 190.7 293.2C192.7 293.2 197.1 289.7 198.7 288.5C203.7 284.6 210.5 278.6 215.3 274.4L230.1 137.6C199.6 154.7 32.5 154.8 1.80005 137.8ZM231.5 129.3C231.5 150.3 0.300049 150.3 0.300049 129.3C0.300049 120.5 52.1 113.4 115.9 113.4C124.9 113.4 133.7 113.5 142.2 113.8L154.8 65.1L216.1 0.600005C217.5 -0.799995 221.9 0.400005 226 4.10001C230.1 7.80001 232.6 12 231.3 13.4L231.2 13.5L173.9 74L163.9 114.7C203.8 117.3 231.5 122.8 231.5 129.3ZM162.1 133.9C162.1 133.1 161.2 132.4 159.6 131.8L159.4 132.6C159.4 133.9 154.4 135 148.3 135C142.2 135 137.2 133.9 137.2 132.6C137.2 132.5 137.2 132.4 137.3 132.3L137.5 131.6C135.7 132.2 134.5 133 134.5 133.9C134.5 136 140.7 137.6 148.2 137.6C155.9 137.7 162.1 136 162.1 133.9Z" fill="#DB4446"/>
</svg>
